<svg id="Calque_1" data-name="Calque 1" xmlns="http://www.w3.org/2000/svg" viewBox="0 0 121.8 42.12"><title>logoquest1</title><path d="M22.77,58.18c3.85,0,6.25,2.2,7.4,6.15l.75-5.3,5.9-.35V94.93h-7.1V79.18c-1.15,2.8-3.25,4.4-6.95,4.4-4.95,0-9.45-4-9.45-12.6C13.32,63.38,17.27,58.18,22.77,58.18Zm2.35,5.5c-2.95,0-4.6,3.05-4.6,7.1,0,5.45,1.95,7.9,4.65,7.9s4.55-2.35,4.55-7.9C29.72,66.78,28,63.68,25.12,63.68Z" transform="translate(-13.07 -53.06)" style="fill:#fff"/><path d="M37.07,95.18h-7.6V80.28c-1.33,2.39-3.54,3.55-6.7,3.55-4.47,0-9.7-3.36-9.7-12.85,0-7.68,4-13.05,9.7-13.05,3.53,0,6,1.79,7.31,5.31l.63-4.45,6.36-.37Zm-7.1-.5h6.6V59l-5.43.32-.88,6.25-.33-1.12c-1.15-4-3.56-6-7.16-6-5.41,0-9.2,5.16-9.2,12.55,0,9.12,5,12.35,9.2,12.35,3.4,0,5.53-1.35,6.72-4.24L30,77.92Zm-4.8-15.75c-3.11,0-4.9-3-4.9-8.15,0-4.46,1.91-7.35,4.85-7.35s4.85,3,4.85,7.35C30,77.52,27.36,78.93,25.17,78.93Zm-.05-15c-2.64,0-4.35,2.69-4.35,6.85,0,4.86,1.61,7.65,4.4,7.65,3.56,0,4.3-4.16,4.3-7.65C29.47,66.75,27.69,63.93,25.12,63.93Z" transform="translate(-13.07 -53.06)" style="fill:#fff"/><path d="M58.67,75.88c-.7,4.15-2.6,7.7-7.7,7.7-5.85,0-7.5-3.75-7.5-9.5v-15l7-.4V70.73c0,5.35,1.05,7,3.6,7,3,0,4.35-3.4,4.35-10.6v-8l7-.4V82.93H59l-.35-6.7Z" transform="translate(-13.07 -53.06)" style="fill:#fff"/><path d="M51,83.83c-6.87,0-7.75-5.21-7.75-9.75V58.85l7.5-.43V70.73c0,5.64,1.18,6.7,3.35,6.7,2.8,0,4.1-3.29,4.1-10.35V58.85l7.55-.43V83.18H58.79l-.29-5.39C57.35,81.85,54.87,83.83,51,83.83ZM43.72,59.32V74.08c0,6.49,2.17,9.25,7.25,9.25,4.17,0,6.61-2.45,7.46-7.49l.49,0v.35l.34,6.45h6V59l-6.55.37v7.76c0,7.4-1.46,10.85-4.6,10.85-2.84,0-3.85-1.88-3.85-7.2V59Z" transform="translate(-13.07 -53.06)" style="fill:#fff"/><path d="M82.12,58.18c6.45,0,9.25,4,9.25,8.55a35.86,35.86,0,0,1-.35,4.5H77.92c0,4.5,1.6,7.7,6.25,7.7,3.5,0,5.4-2,5.75-4.65h2c0,5.25-3.45,9.3-9.5,9.3C75,83.58,71,79.38,71,71.73,71,64.33,75.42,58.18,82.12,58.18ZM78,68.58l7.65-.15a9.57,9.57,0,0,0,.15-1.6c0-1.6-.45-3.55-3.3-3.55C80.22,63.28,78.42,65.08,78,68.58Z" transform="translate(-13.07 -53.06)" style="fill:#fff"/><path d="M82.47,83.83c-7.57,0-11.75-4.29-11.75-12.1s4.9-13.8,11.4-13.8c7,0,9.5,4.55,9.5,8.8a37.39,37.39,0,0,1-.35,4.55l0,.2h-13c.12,4.85,2.08,7.2,6,7.2,3.13,0,5.14-1.61,5.5-4.43l0-.22h2.52v.25C92.22,80,88.3,83.83,82.47,83.83Zm-.35-25.4c-6.21,0-10.9,5.72-10.9,13.3s4,11.6,11.25,11.6c5.45,0,9.14-3.52,9.25-8.8H90.14c-.47,2.92-2.69,4.65-6,4.65-4.31,0-6.44-2.6-6.5-7.94V71H90.81a36,36,0,0,0,.31-4.25C91.12,61.53,87.76,58.43,82.12,58.43ZM77.74,68.84l0-.29c.4-3.45,2.17-5.52,4.75-5.52,2.36,0,3.55,1.28,3.55,3.8a10.22,10.22,0,0,1-.15,1.66l0,.19Zm4.78-5.31c-2.23,0-3.79,1.79-4.21,4.8l7.15-.14a9.83,9.83,0,0,0,.11-1.36C85.57,64.58,84.6,63.53,82.52,63.53Z" transform="translate(-13.07 -53.06)" style="fill:#fff"/><path d="M98.82,75.28a5.62,5.62,0,0,0,5.85,4.85c2.3,0,3.9-.7,3.9-2.65,0-1.8-1-2.6-4.2-3.45-4.65-1.3-7.4-3.45-7.4-7.85,0-4.6,3.6-8,9.45-8,5.55,0,8.85,3,8.1,7.8h-2.85a4.13,4.13,0,0,0-4.2-3.75c-2.15,0-3.55,1-3.55,2.65s1,2.3,4.7,3.4c4.9,1.4,6.85,3.8,6.85,7.5,0,4.5-3.4,7.8-9.75,7.8-6.1,0-9.35-3.1-9.35-8.3Z" transform="translate(-13.07 -53.06)" style="fill:#fff"/><path d="M105.72,83.83c-6.1,0-9.6-3.11-9.6-8.55V75H99l0,.2a5.37,5.37,0,0,0,5.61,4.65c2.46,0,3.65-.78,3.65-2.4s-.9-2.38-4-3.21c-5.25-1.46-7.59-4-7.59-8.09,0-4.93,3.9-8.25,9.7-8.25,3.13,0,5.56.9,7,2.61A6.57,6.57,0,0,1,114.77,66l0,.21h-3.29l0-.21a3.89,3.89,0,0,0-4-3.54c-2.07,0-3.3.9-3.3,2.4s.72,2.05,4.52,3.16c4.86,1.39,7,3.78,7,7.74C115.72,80.75,111.89,83.83,105.72,83.83Zm-9.1-8.3c.11,5,3.33,7.8,9.1,7.8s9.5-2.89,9.5-7.55c0-3.7-2-5.94-6.67-7.26-3.78-1.11-4.88-1.72-4.88-3.64s1.46-2.9,3.8-2.9a4.35,4.35,0,0,1,4.41,3.75h2.42a6,6,0,0,0-1.24-4.87c-1.34-1.56-3.7-2.43-6.64-2.43-5.5,0-9.2,3.12-9.2,7.75,0,3.92,2.16,6.2,7.22,7.61,3.32.88,4.38,1.78,4.38,3.69s-1.4,2.9-4.15,2.9a5.86,5.86,0,0,1-6-4.85Z" transform="translate(-13.07 -53.06)" style="fill:#fff"/><path d="M121.32,62.28h-3.4V59.83l3.4-.75v-5.2l7-.55V59h5.75v3.25h-5.75v13.3c0,2.2.7,3.3,2.5,3.3s2.25-.8,2.25-1.95h1.55c0,4-1.55,6.65-6,6.65-4.75,0-7.3-2.25-7.3-9Z" transform="translate(-13.07 -53.06)" style="fill:#fff"/><path d="M128.62,83.83c-5.29,0-7.55-2.78-7.55-9.3v-12h-3.4v-2.9l3.4-.75V53.65l7.5-.59v5.72h5.75v3.75h-5.75v13c0,2.14.67,3,2.25,3,1.37,0,2-.54,2-1.7v-.25h2.05v.25C134.87,81.58,132.83,83.83,128.62,83.83ZM118.17,62h3.4v12.5c0,6.25,2,8.8,7.05,8.8,3.85,0,5.68-2,5.75-6.15h-1.06c-.07.94-.59,1.95-2.49,1.95-2.46,0-2.75-2-2.75-3.55V62h5.75V59.28h-5.75V53.6l-6.5.51v5.17l-3.4.75Z" transform="translate(-13.07 -53.06)" style="fill:#fff"/></svg>